<svg xmlns="http://www.w3.org/2000/svg" viewBox="0 0 55 55"><defs><style>.cls-1{fill:#00983a;}.cls-2{fill:#fff;}</style></defs><g id="Layer_2" data-name="Layer 2"><g id="Layer_1-2" data-name="Layer 1"><circle class="cls-1" cx="27.5" cy="27.5" r="27.5"/><path class="cls-2" d="M45,16.51l-1.62-1.38a3.43,3.43,0,0,0-4.83.37L23.2,33.41l-7.37-6.33a3.44,3.44,0,0,0-4.84.37L9.61,29.06A3.44,3.44,0,0,0,10,33.9l9.25,7.94a4,4,0,0,0,.63.74L21.47,44a3.42,3.42,0,0,0,4.83-.37L45.39,21.35A3.44,3.44,0,0,0,45,16.51Z"/></g></g></svg>