<svg xmlns="http://www.w3.org/2000/svg" xml:space="preserve" width="2048" height="2048" style="shape-rendering:geometricPrecision;text-rendering:geometricPrecision;image-rendering:optimizeQuality;fill-rule:evenodd;clip-rule:evenodd"><defs><style>.fil0{fill:none}</style></defs><g id="Layer_x0020_1"><g id="_526171512"><path id="_526156368" class="fil0" d="M0 0h2048v2048H0z"/><path id="_526142568" class="fil0" d="M255.999 255.999h1536v1536h-1536z"/></g><path d="m362.735 280.662 1404.77 1404.77.002-.002c11.333 11.332 11.333 29.707 0 41.04l-.164.16-40.875 40.874.002.003c-11.333 11.333-29.707 11.333-41.04 0l-.16-.164L280.5 362.573l-.003.002c-11.333-11.333-11.333-29.707 0-41.04l.164-.16 40.876-40.875-.002-.002c11.332-11.333 29.708-11.333 41.04 0l.16.164z" style="fill:#7d7d7d;fill-rule:nonzero"/><path d="M1685.27 280.662 280.5 1685.432l-.002-.002c-11.333 11.332-11.333 29.707 0 41.04l.164.16 40.875 40.874-.002.003c11.333 11.333 29.707 11.333 41.04 0l.16-.164 1404.77-1404.77.003.002c11.333-11.333 11.333-29.707 0-41.04l-.164-.16-40.876-40.875.002-.002c-11.332-11.333-29.708-11.333-41.04 0l-.16.164z" style="fill:#8e8e8f;fill-rule:nonzero"/></g></svg>